<?xml version="1.0" encoding="utf-8"?>
<!-- Generator: Adobe Illustrator 18.1.1, SVG Export Plug-In . SVG Version: 6.00 Build 0)  -->
<svg version="1.1" xmlns="http://www.w3.org/2000/svg" xmlns:xlink="http://www.w3.org/1999/xlink" x="0px" y="0px"
	 viewBox="0 0 96 96" enable-background="new 0 0 96 96" xml:space="preserve">
<g id="Layer_1">
	<rect width="96" height="96"/>
	<g>
		<path fill="#FFFFFF" d="M19,28.3c0.8,0,1.4,0.3,2,1c0.6,0.7,0.8,1.5,0.8,2.4v6c0,0.9-0.3,1.7-0.8,2.4c-0.6,0.7-1.2,1-2,1h-8.9
			c-0.5,0-0.9-0.4-1-1.1c0-0.6,0.3-1,1-1.1H19c0.4,0,0.7-0.4,0.8-1.2v-6c0-0.7-0.3-1.1-0.8-1.2h-7c-0.8,0-1.5-0.3-2-1
			c-0.6-0.7-0.8-1.5-0.8-2.4v-6c0-0.9,0.3-1.7,0.8-2.4c0.6-0.7,1.2-1,2-1h5.6c0.6,0,0.9,0.4,1,1.1c0,0.6-0.3,1-1,1.1H12
			c-0.5,0-0.7,0.4-0.8,1.2v6c0,0.7,0.3,1.1,0.8,1.2H19z"/>
		<path fill="#FFFFFF" d="M33.4,26.1c0.9,0,1.6,0.3,2.3,1c0.6,0.7,0.9,1.5,0.9,2.4v8.3c0,0.9-0.3,1.7-0.9,2.4c-0.6,0.7-1.4,1-2.3,1
			h-6.8c-0.9,0-1.6-0.3-2.3-1c-0.6-0.7-0.9-1.5-0.9-2.4v-8.3c0-0.9,0.3-1.7,0.9-2.4c0.6-0.7,1.4-1,2.3-1H33.4z M34.5,37.8v-8.3
			c0-0.7-0.4-1.1-1.2-1.2h-6.8c-0.6,0-1,0.4-1.2,1.2v8.3c0,0.7,0.4,1.1,1.2,1.2h6.8C34,39,34.4,38.6,34.5,37.8z"/>
		<path fill="#FFFFFF" d="M48.4,26.1c0.6,0,0.9,0.4,1,1.1v17.6c0,0.9-0.3,1.7-0.9,2.4c-0.6,0.7-1.4,1-2.3,1h-1.9
			c-0.6,0-0.9-0.4-1-1.1c0-0.6,0.3-1,1-1.1h1.9c0.6,0,1-0.4,1.2-1.2v-3.6h-5.8c-0.9,0-1.6-0.3-2.3-1c-0.6-0.7-0.9-1.5-0.9-2.4V27.1
			c0-0.6,0.3-0.9,1-1.1c0.6,0,0.9,0.4,1,1.1v10.7c0,0.7,0.4,1.1,1.2,1.2h5.8V27.1C47.4,26.5,47.7,26.2,48.4,26.1z"/>
		<path fill="#FFFFFF" d="M71.4,26.1c0.6,0,0.9,0.4,1,1.1v12.9c0,0.6-0.3,1-1,1.1h-7.1c-1.2,0-2.1-0.3-2.9-1
			c-0.8-0.7-1.2-1.5-1.2-2.4V27.1c0-0.6,0.3-0.9,1-1.1c0.6,0,0.9,0.4,1,1.1v10.6c0,0.3,0.2,0.6,0.6,0.8c0.4,0.3,0.9,0.4,1.5,0.4h6.1
			V27.1C70.4,26.5,70.7,26.2,71.4,26.1z"/>
		<path fill="#FFFFFF" d="M82.7,26.1c1.2,0,2.1,0.3,2.9,1c0.8,0.6,1.2,1.5,1.2,2.4v10.6c0,0.6-0.3,1-1,1.1c-0.6,0-0.9-0.4-1-1.1
			V29.4c0-0.3-0.2-0.6-0.6-0.8c-0.4-0.3-0.9-0.4-1.5-0.4h-6.1v11.8c0,0.6-0.3,1-1,1.1c-0.5,0-0.9-0.4-1-1.1V27.1
			c0-0.6,0.3-0.9,1-1.1H82.7z"/>
		<path fill="#FFFFFF" d="M23.4,68.8c0.8,0,1.5,0.3,2.1,1c0.6,0.7,0.9,1.5,0.9,2.4v5.7c0,0.9-0.3,1.7-0.9,2.4c-0.6,0.7-1.3,1-2.1,1
			H12.8c-0.9,0-1.6-0.3-2.2-1c-0.6-0.7-0.9-1.5-0.9-2.4V61.3c0-0.9,0.3-1.7,0.9-2.4c0.6-0.7,1.4-1,2.2-1h6.4c0.8,0,1.5,0.3,2,1
			c0.6,0.7,0.8,1.5,0.8,2.4v3.9c0,0.9-0.3,1.7-0.8,2.4c-0.6,0.7-1.2,1-2,1h-3.4c0,0,0,0.1,0,0.1c0,0.1,0,0.1,0,0.1L23.4,68.8z
			 M24.3,77.9v-5.7c0-0.7-0.3-1.1-0.9-1.2h-7.6c-0.5,0-1-0.2-1.4-0.7c-0.4-0.4-0.6-1-0.6-1.6c0-0.6,0.2-1.2,0.6-1.6
			c0.4-0.4,0.9-0.7,1.4-0.7h3.4c0.5,0,0.8-0.4,0.9-1.2v-3.9c0-0.7-0.3-1.1-0.9-1.2h-6.4c-0.6,0-1,0.4-1.1,1.2v16.6
			c0,0.7,0.4,1.1,1.1,1.2h10.6C23.9,79.2,24.1,78.8,24.3,77.9z"/>
		<path fill="#FFFFFF" d="M37.7,66.3c0.9,0,1.6,0.3,2.3,1c0.6,0.7,0.9,1.5,0.9,2.4V78c0,0.9-0.3,1.7-0.9,2.4c-0.6,0.7-1.4,1-2.3,1
			h-6.8c-0.9,0-1.6-0.3-2.3-1c-0.6-0.7-0.9-1.5-0.9-2.4v-8.3c0-0.9,0.3-1.7,0.9-2.4c0.6-0.7,1.4-1,2.3-1H37.7z M38.8,78v-8.3
			c0-0.7-0.4-1.1-1.2-1.2h-6.8c-0.6,0-1,0.4-1.2,1.2V78c0,0.7,0.4,1.1,1.2,1.2h6.8C38.3,79.2,38.7,78.8,38.8,78z"/>
		<path fill="#FFFFFF" d="M47.5,79.2c0.6,0,0.9,0.4,1,1.1c0,0.6-0.3,1-1,1.1H46c-0.9,0-1.6-0.3-2.2-1c-0.6-0.7-0.9-1.5-0.9-2.4V59.1
			c0-0.6,0.3-1,1-1.1c0.6,0,0.9,0.4,1,1.1V78c0,0.7,0.4,1.1,1.1,1.2H47.5z M49.2,66.3c0.6,0,0.9,0.4,1,1.1c0,0.6-0.3,1-1,1.1h-2.9
			c-0.6,0-0.9-0.4-1-1.1c0-0.6,0.3-0.9,1-1.1H49.2z"/>
		<path fill="#FFFFFF" d="M61.3,66.3c0.9,0,1.6,0.3,2.3,1c0.6,0.7,0.9,1.5,0.9,2.4V78c0,0.9-0.3,1.7-0.9,2.4c-0.6,0.7-1.4,1-2.3,1
			h-6.9c-0.9,0-1.6-0.3-2.3-1c-0.6-0.7-0.9-1.5-0.9-2.4v-8.3c0-0.9,0.3-1.7,0.9-2.4c0.6-0.7,1.4-1,2.3-1H61.3z M62.5,78v-8.3
			c0-0.7-0.4-1.1-1.2-1.2h-6.9c-0.6,0-1,0.4-1.2,1.2V78c0,0.7,0.4,1.1,1.2,1.2h6.9C61.9,79.2,62.3,78.8,62.5,78z"/>
		<path fill="#FFFFFF" d="M74.7,66.3c1.2,0,2.1,0.3,2.9,1c0.8,0.6,1.2,1.5,1.2,2.4v10.6c0,0.6-0.3,1-1,1.1c-0.6,0-0.9-0.4-1-1.1
			V69.7c0-0.3-0.2-0.6-0.6-0.8c-0.4-0.3-0.9-0.4-1.5-0.4h-6.1v11.8c0,0.6-0.3,1-1,1.1c-0.5,0-0.9-0.4-1-1.1V67.4
			c0-0.6,0.3-0.9,1-1.1H74.7z"/>
	</g>
</g>
<g id="Layer_2" display="none">
	<g display="inline">
		<path fill="#FFFFFF" d="M26.3,30.2c0.6,0,1.1,0.2,1.5,0.7c0.4,0.5,0.6,1.1,0.6,1.8v4.5c0,0.7-0.2,1.3-0.6,1.8
			c-0.4,0.5-0.9,0.7-1.5,0.7h-6.7c-0.4,0-0.7-0.3-0.8-0.8c0-0.5,0.3-0.7,0.8-0.8h6.7c0.3,0,0.5-0.3,0.6-0.9v-4.5
			c0-0.5-0.2-0.8-0.6-0.9H21c-0.6,0-1.1-0.3-1.5-0.8c-0.4-0.5-0.6-1.1-0.6-1.8v-4.5c0-0.7,0.2-1.3,0.6-1.8c0.4-0.5,0.9-0.7,1.5-0.7
			h4.2c0.4,0,0.7,0.3,0.8,0.8c0,0.5-0.3,0.7-0.8,0.8H21c-0.3,0-0.6,0.3-0.6,0.9v4.5c0,0.5,0.2,0.8,0.6,0.9H26.3z"/>
		<path fill="#FFFFFF" d="M37,28.5c0.7,0,1.2,0.2,1.7,0.7s0.7,1.1,0.7,1.8v6.2c0,0.7-0.2,1.3-0.7,1.8s-1,0.8-1.7,0.8h-5.1
			c-0.7,0-1.2-0.3-1.7-0.8s-0.7-1.1-0.7-1.8v-6.2c0-0.7,0.2-1.3,0.7-1.8s1-0.7,1.7-0.7H37z M37.9,37.3v-6.2c0-0.5-0.3-0.8-0.9-0.9
			h-5.1c-0.5,0-0.8,0.3-0.9,0.9v6.2c0,0.5,0.3,0.8,0.9,0.9H37C37.5,38.3,37.8,37.9,37.9,37.3z"/>
		<path fill="#FFFFFF" d="M48.3,28.5c0.4,0,0.7,0.3,0.8,0.8v13.2c0,0.7-0.2,1.3-0.7,1.8c-0.5,0.5-1,0.7-1.7,0.7h-1.4
			c-0.4,0-0.7-0.3-0.8-0.8c0-0.5,0.3-0.7,0.8-0.8h1.4c0.5,0,0.8-0.3,0.9-0.9v-2.7h-4.4c-0.7,0-1.2-0.3-1.7-0.8s-0.7-1.1-0.7-1.8v-8
			c0-0.4,0.3-0.7,0.8-0.8c0.4,0,0.7,0.3,0.8,0.8v8c0,0.5,0.3,0.8,0.9,0.9h4.4v-8.9C47.6,28.9,47.8,28.6,48.3,28.5z"/>
		<path fill="#FFFFFF" d="M65.6,28.5c0.4,0,0.7,0.3,0.8,0.8v9.7c0,0.5-0.3,0.7-0.8,0.8h-5.3c-0.9,0-1.6-0.2-2.2-0.7
			s-0.9-1.1-0.9-1.8v-8c0-0.4,0.3-0.7,0.8-0.8c0.4,0,0.7,0.3,0.8,0.8v8c0,0.2,0.1,0.4,0.4,0.6s0.7,0.3,1.1,0.3h4.6v-8.9
			C64.8,28.9,65,28.6,65.6,28.5z"/>
		<path fill="#FFFFFF" d="M74,28.5c0.9,0,1.6,0.2,2.2,0.7c0.6,0.5,0.9,1.1,0.9,1.8v8c0,0.5-0.3,0.7-0.8,0.8c-0.4,0-0.7-0.3-0.8-0.8
			v-8c0-0.2-0.1-0.4-0.4-0.6c-0.3-0.2-0.7-0.3-1.1-0.3h-4.6v8.9c0,0.5-0.3,0.7-0.8,0.8c-0.4,0-0.7-0.3-0.8-0.8v-9.7
			c0-0.4,0.3-0.7,0.8-0.8H74z"/>
		<path fill="#FFFFFF" d="M29.5,60.6c0.6,0,1.1,0.3,1.5,0.8c0.4,0.5,0.6,1.1,0.6,1.8v4.3c0,0.7-0.2,1.3-0.6,1.8
			c-0.4,0.5-0.9,0.7-1.5,0.7h-7.9c-0.7,0-1.2-0.2-1.7-0.7c-0.5-0.5-0.7-1.1-0.7-1.8V55c0-0.7,0.2-1.3,0.7-1.8c0.5-0.5,1-0.7,1.7-0.7
			h4.8c0.6,0,1.1,0.3,1.5,0.8s0.6,1.1,0.6,1.8v2.9c0,0.7-0.2,1.3-0.6,1.8s-0.9,0.7-1.5,0.7h-2.5c0,0,0,0,0,0.1c0,0,0,0.1,0,0.1
			L29.5,60.6z M30.2,67.5v-4.3c0-0.5-0.2-0.8-0.7-0.9h-5.7c-0.4,0-0.8-0.2-1-0.5c-0.3-0.3-0.4-0.7-0.4-1.2s0.1-0.9,0.4-1.2
			c0.3-0.3,0.6-0.5,1-0.5h2.6c0.4,0,0.6-0.3,0.7-0.9V55c0-0.5-0.2-0.8-0.7-0.9h-4.8c-0.5,0-0.8,0.3-0.8,0.9v12.5
			c0,0.5,0.3,0.8,0.8,0.9h7.9C29.9,68.4,30.1,68.1,30.2,67.5z"/>
		<path fill="#FFFFFF" d="M40.3,58.7c0.7,0,1.2,0.2,1.7,0.7c0.5,0.5,0.7,1.1,0.7,1.8v6.2c0,0.7-0.2,1.3-0.7,1.8s-1,0.8-1.7,0.8h-5.1
			c-0.7,0-1.2-0.3-1.7-0.8s-0.7-1.1-0.7-1.8v-6.2c0-0.7,0.2-1.3,0.7-1.8c0.5-0.5,1-0.7,1.7-0.7H40.3z M41.1,67.5v-6.2
			c0-0.5-0.3-0.8-0.9-0.9h-5.1c-0.5,0-0.8,0.3-0.9,0.9v6.2c0,0.5,0.3,0.8,0.9,0.9h5.1C40.7,68.4,41,68.1,41.1,67.5z"/>
		<path fill="#FFFFFF" d="M47.6,68.4c0.4,0,0.7,0.3,0.8,0.8c0,0.5-0.3,0.7-0.8,0.8h-1.1c-0.7,0-1.2-0.3-1.7-0.8s-0.7-1.1-0.7-1.8
			V53.3c0-0.5,0.3-0.7,0.8-0.8c0.4,0,0.7,0.3,0.8,0.8v14.2c0,0.5,0.3,0.8,0.8,0.9H47.6z M48.9,58.7c0.4,0,0.7,0.3,0.8,0.8
			c0,0.5-0.3,0.7-0.8,0.8h-2.2c-0.4,0-0.7-0.3-0.8-0.8c0-0.4,0.3-0.7,0.8-0.8H48.9z"/>
		<path fill="#FFFFFF" d="M58,58.7c0.7,0,1.2,0.2,1.7,0.7c0.5,0.5,0.7,1.1,0.7,1.8v6.2c0,0.7-0.2,1.3-0.7,1.8
			c-0.5,0.5-1,0.8-1.7,0.8h-5.1c-0.7,0-1.2-0.3-1.7-0.8s-0.7-1.1-0.7-1.8v-6.2c0-0.7,0.2-1.3,0.7-1.8c0.5-0.5,1-0.7,1.7-0.7H58z
			 M58.8,67.5v-6.2c0-0.5-0.3-0.8-0.9-0.9h-5.1c-0.5,0-0.8,0.3-0.9,0.9v6.2c0,0.5,0.3,0.8,0.9,0.9H58C58.4,68.4,58.7,68.1,58.8,67.5
			z"/>
		<path fill="#FFFFFF" d="M68,58.7c0.9,0,1.6,0.2,2.2,0.7c0.6,0.5,0.9,1.1,0.9,1.8v8c0,0.5-0.3,0.7-0.8,0.8c-0.4,0-0.7-0.3-0.8-0.8
			v-8c0-0.2-0.1-0.4-0.4-0.6c-0.3-0.2-0.7-0.3-1.1-0.3h-4.6v8.9c0,0.5-0.3,0.7-0.8,0.8c-0.4,0-0.7-0.3-0.8-0.8v-9.7
			c0-0.4,0.3-0.7,0.8-0.8H68z"/>
	</g>
</g>
</svg>
