<?xml version="1.0" encoding="utf-8"?>
<!-- Generator: Adobe Illustrator 18.1.1, SVG Export Plug-In . SVG Version: 6.00 Build 0)  -->
<svg version="1.1" xmlns="http://www.w3.org/2000/svg" xmlns:xlink="http://www.w3.org/1999/xlink" x="0px" y="0px"
	 viewBox="0 0 1200 900" enable-background="new 0 0 1200 900" xml:space="preserve">
<g id="Layer_2" display="none">
	<rect display="inline" stroke="#FFFFFF" stroke-miterlimit="10" width="1200" height="900"/>
</g>
<g id="Layer_1">
	<path fill="#FFFFFF" d="M163.3,372.9c5.1,0,8.2,2.7,9.6,8.1c0.3,1.2,0.4,2.5,0.2,3.7c-0.7,4.2-3.6,6.8-8.9,7.9
		c-0.6,0.1-1.2,0.2-1.9,0.2H59.3c-8.7,0-16.1-3.1-22.4-9.2c-6.2-6.1-9.3-13.5-9.3-22.2V207.7c0-8.7,3.1-16.1,9.3-22.4
		c6.2-6.2,13.7-9.3,22.4-9.3h63c4.6,0,7.7,2.4,9.3,7.3c0.6,1.8,0.8,3.7,0.3,5.5c-0.9,3.7-3.8,6-8.5,7.2c-0.7,0.2-1.4,0.2-2.2,0.2
		H59.3c-6.2,0-9.9,3.5-11.3,10.5c-0.1,0.6-0.2,1.3-0.2,1.9v152.8c0,5.9,3.5,9.7,10.4,11.3c0.7,0.2,1.4,0.2,2.1,0.2H163.3z
		 M163.3,274.5c5.3,0,8.6,3,9.8,9c0.1,0.6,0.2,1.2,0.2,1.9v68c0,4.8-2.4,8-7.3,9.6c-1.8,0.6-3.7,0.8-5.6,0.3c-3.6-1-5.9-4-6.9-9
		c-0.1-0.6-0.2-1.2-0.2-1.8V305c0-5.7-4.6-10.3-10.3-10.3h-42.5c-4.8,0-8-2.5-9.6-7.6c-0.6-1.8-0.8-3.7-0.3-5.5c1-3.7,4-6,9-6.9
		c0.6-0.1,1.2-0.2,1.8-0.2H163.3z"/>
	<path fill="#FFFFFF" d="M285.3,253.7c8.7,0,16.1,3.1,22.4,9.2c6.2,6.1,9.3,13.5,9.3,22.2v77c0,8.7-3.1,16.1-9.3,22.4
		c-6.2,6.2-13.7,9.3-22.4,9.3h-67.7c-8.7,0-16.1-3.1-22.4-9.3c-6.2-6.2-9.3-13.7-9.3-22.4v-27.6c0-8.7,3-16.1,9-22.2
		c6-6.1,13.6-9.3,22.7-9.5h68.9c5.7,0,10.3-4.6,10.3-10.3V285c0-6-3.5-9.6-10.6-11c-0.6-0.1-1.3-0.2-1.9-0.2h-39.7
		c-4.7,0-7.8-2.6-9.3-7.7c-0.5-1.8-0.7-3.6-0.3-5.4c0.9-3.5,3.8-5.8,8.5-6.9c0.7-0.2,1.4-0.2,2.2-0.2H285.3z M296.8,361v-27.8
		c0-5.7-4.6-10.3-10.3-10.3h-68.9c-6.2,0-9.9,3.5-11.3,10.6c-0.1,0.6-0.2,1.3-0.2,1.9V362c0,6.2,3.5,9.9,10.6,11.3
		c0.6,0.1,1.3,0.2,1.9,0.2h66.8c5.9,0,9.7-3.5,11.3-10.4C296.8,362.4,296.8,361.7,296.8,361z"/>
	<path fill="#FFFFFF" d="M382.2,373.5c5.6,0,8.9,3.3,9.9,9.9c0,5.6-3.3,9-9.9,10.2h-14.6c-8.7,0-16.1-3.1-22.2-9.3
		c-6.1-6.2-9.2-13.6-9.2-22V186.9c0-5.6,3.3-9,9.9-10.2c5.6,0,9,3.4,10.2,10.2v175.5c0,6.2,3.7,9.9,11.2,11.2H382.2z"/>
	<path fill="#FFFFFF" d="M496.5,253.7c8.7,0,16.1,3.1,22.4,9.2c6.2,6.1,9.3,13.5,9.3,22.2v77c0,8.7-3.1,16.1-9.3,22.4
		s-13.7,9.3-22.4,9.3h-67.7c-8.7,0-16.1-3.1-22.4-9.3c-6.2-6.2-9.3-13.7-9.3-22.4v-27.6c0-8.7,3-16.1,9-22.2
		c6-6.1,13.6-9.3,22.7-9.5h68.9c5.7,0,10.3-4.6,10.3-10.3V285c0-6-3.5-9.6-10.6-11c-0.6-0.1-1.3-0.2-1.9-0.2h-39.7
		c-4.7,0-7.8-2.6-9.3-7.7c-0.5-1.8-0.7-3.6-0.3-5.4c0.9-3.5,3.8-5.8,8.5-6.9c0.7-0.2,1.4-0.2,2.2-0.2H496.5z M508,361v-27.8
		c0-5.7-4.6-10.3-10.3-10.3h-68.9c-6.2,0-9.9,3.5-11.3,10.6c-0.1,0.6-0.2,1.3-0.2,1.9V362c0,6.2,3.5,9.9,10.6,11.3
		c0.6,0.1,1.3,0.2,1.9,0.2h66.8c5.9,0,9.7-3.5,11.3-10.4C507.9,362.4,508,361.7,508,361z"/>
	<path fill="#FFFFFF" d="M807.2,253.7c5.6,0.3,9.1,3.2,10.7,8.8c0.2,0.7,0.3,1.5,0.3,2.3V427c0,8.7-3.6,16.1-10.9,22.2
		c-7.3,6.1-16,9.2-26.2,9.2h-21.8c-5.4,0-9-2.3-10.8-6.8c-0.8-2.1-1.1-4.4-0.3-6.6c1.3-3.4,4.7-5.7,10.2-6.7
		c0.6-0.1,1.1-0.1,1.7-0.1h20.9c6.9,0,11.3-3.3,13.1-10c0.2-0.8,0.3-1.6,0.3-2.3v-22.6c0-5.2-4.2-9.5-9.5-9.5h-57.7
		c-10.2,0-18.9-3.1-26.2-9.3s-10.9-13.7-10.9-22.4v-98.8c0-5.1,3.5-8.4,10.6-9.8c0.7-0.1,1.3-0.2,2-0.1c5.6,0.3,9.1,3.2,10.7,8.8
		c0.2,0.7,0.3,1.5,0.3,2.3V362c0,6.2,4.2,10,12.7,11.4c0.5,0.1,1,0.1,1.5,0.1h57c5.2,0,9.5-4.2,9.5-9.5V263.6
		c0-5.1,3.5-8.4,10.6-9.8C805.8,253.7,806.5,253.7,807.2,253.7z"/>
	<path fill="#FFFFFF" d="M387.2,630.7c5.1,0,8.2,2.7,9.6,8.1c0.3,1.2,0.4,2.5,0.2,3.7c-0.7,4.2-3.6,6.8-8.9,7.9
		c-0.6,0.1-1.2,0.2-1.9,0.2H283.2c-8.7,0-16.1-3.1-22.4-9.2c-6.2-6.1-9.3-13.5-9.3-22.2V465.5c0-8.7,3.1-16.1,9.3-22.4
		c6.2-6.2,13.7-9.3,22.4-9.3h63c4.6,0,7.7,2.4,9.3,7.3c0.6,1.8,0.8,3.7,0.3,5.5c-0.9,3.7-3.8,6-8.5,7.2c-0.7,0.2-1.4,0.2-2.2,0.2
		h-61.9c-6.2,0-9.9,3.5-11.3,10.5c-0.1,0.6-0.2,1.3-0.2,1.9v152.8c0,5.9,3.5,9.7,10.4,11.3c0.7,0.2,1.4,0.2,2.1,0.2H387.2z
		 M387.2,532.3c5.3,0,8.6,3,9.8,9c0.1,0.6,0.2,1.2,0.2,1.9v68c0,4.8-2.4,8-7.3,9.6c-1.8,0.6-3.7,0.8-5.6,0.3c-3.6-1-5.9-4-6.9-9
		c-0.1-0.6-0.2-1.2-0.2-1.8v-47.5c0-5.7-4.6-10.3-10.3-10.3h-42.5c-4.8,0-8-2.5-9.6-7.6c-0.6-1.8-0.8-3.7-0.3-5.5c1-3.7,4-6,9-6.9
		c0.6-0.1,1.2-0.2,1.8-0.2H387.2z"/>
	<path fill="#FFFFFF" d="M538.4,555.9c2.3,5.6,0.8,10.1-4.3,13.7c-1.5,0.6-3,0.9-4.7,0.9c-3.7,0-6.7-1.8-9-5.3l-14.3-27.3
		c-2.7-4.1-6.3-6.2-10.9-6.2h-32c-3.9,0-7.2,1.7-9.9,5l-20.2,27v77.6c0,5.6-3.4,9-10.2,10.2c-5.4,0-8.7-3.4-9.9-10.2V521.4
		c0-5.4,3.3-8.7,9.9-9.9c5.6,0,9,3.3,10.2,9.9v8.4l4-5.3c7-8.7,15.7-13,26.1-13h32c12.2,0,21.8,5.7,28.9,17.1L538.4,555.9z"/>
	<path fill="#FFFFFF" d="M642.8,511.5c8.7,0,16.1,3.1,22.4,9.2c6.2,6.1,9.3,13.5,9.3,22.2v77c0,8.7-3.1,16.1-9.3,22.4
		s-13.7,9.3-22.4,9.3h-67.7c-8.7,0-16.1-3.1-22.4-9.3s-9.3-13.7-9.3-22.4v-27.6c0-8.7,3-16.1,9-22.2c6-6.1,13.6-9.3,22.7-9.5H644
		c5.7,0,10.3-4.6,10.3-10.3v-7.4c0-6-3.5-9.6-10.6-11c-0.6-0.1-1.3-0.2-1.9-0.2h-39.7c-4.7,0-7.8-2.6-9.3-7.7
		c-0.5-1.8-0.7-3.6-0.3-5.4c0.9-3.5,3.8-5.8,8.5-6.9c0.7-0.2,1.4-0.2,2.2-0.2H642.8z M654.3,618.8V591c0-5.7-4.6-10.3-10.3-10.3
		h-68.9c-6.2,0-9.9,3.5-11.3,10.6c-0.1,0.6-0.2,1.3-0.2,1.9v26.7c0,6.2,3.5,9.9,10.6,11.3c0.6,0.1,1.3,0.2,1.9,0.2h66.8
		c5.9,0,9.7-3.5,11.3-10.4C654.2,620.2,654.3,619.5,654.3,618.8z"/>
	<path fill="#FFFFFF" d="M793.4,511.5c8.7,0,16,3,22,9c6,6,9.2,13.5,9.6,22.4v77c0,8.7-3.1,16.1-9.3,22.4
		c-6.2,6.2-13.7,9.3-22.4,9.3H725c-6,0-10.8,4.8-10.8,10.8v43.9c0,4.8-2.5,7.9-7.6,9.4c-1.8,0.5-3.7,0.7-5.4,0.2
		c-3.5-0.9-5.8-3.8-6.9-8.5c-0.2-0.7-0.2-1.5-0.2-2.3V542.9c0-8.7,3.1-16.1,9.3-22.2c6.2-6.1,13.7-9.2,22.4-9.2H793.4z M804.7,621
		c0.2-0.7,0.2-1.5,0.2-2.2v-75.9c0-5.9-3.5-9.6-10.5-11c-0.6-0.1-1.3-0.2-2-0.2h-66.7c-6.1,0-9.9,3.4-11.3,10.2
		c-0.1,0.7-0.2,1.4-0.2,2v76.7c0,6,4.8,10.8,10.8,10.8h68.4C799.3,631.4,803.1,627.9,804.7,621z"/>
	<path fill="#FFFFFF" d="M944.6,511.5c8.7,0,16.1,3.1,22.4,9.2c6.2,6.1,9.3,13.5,9.3,22.2v98.4c0,5.1-2.8,8.3-8.4,9.8
		c-1.2,0.3-2.6,0.5-3.8,0.3c-4.2-0.7-6.8-3.8-7.8-9.2c-0.1-0.6-0.1-1.2-0.1-1.8v-97.6c0-6-3.5-9.6-10.6-11c-0.6-0.1-1.2-0.2-1.8-0.2
		h-68.2c-5.6,0-10.1,4.5-10.1,10.1v99.5c0,4.8-2.6,8-7.7,9.6c-1.8,0.5-3.6,0.8-5.4,0.3c-3.5-1-5.8-3.9-6.9-8.9
		c-0.2-0.7-0.2-1.4-0.2-2.1V444.7c0-4.8,2.4-8,7.3-9.6c1.8-0.6,3.6-0.8,5.4-0.3c3.7,1,6.1,3.9,7.2,8.9c0.2,0.7,0.2,1.4,0.2,2.1v55.7
		c0,5.6,4.5,10.1,10.1,10.1H944.6z"/>
	<path fill="#FFFFFF" d="M623.6,323.9l48.9,54c3.8,5.2,2.9,9.8-2.7,14c-2.3,1.2-4.7,1.9-7.3,1.9c-3.8,0-7.3-1.3-10.3-4l-43.9-49.1
		l-43.9,49.1c-2.8,2.7-6.1,4-9.9,4c-2.5,0-5-0.6-7.3-1.9c-5.9-4.1-6.8-8.8-2.7-14l48.5-54l-48.5-54.3c-4.1-5.2-3.2-9.8,2.7-14
		c6.4-3.1,12.1-2.4,17.2,2.2l43.9,49.1l43.9-49.1c5.1-4.6,10.9-5.3,17.6-2.2c5.6,4.1,6.5,8.8,2.7,14L623.6,323.9z"/>
	<g>
		<path fill="#FFFFFF" d="M1062.4,297.5c-70,12.9-80.4,23.3-93.3,93.4c-12.9-70-23.3-80.5-93.3-93.4c70-12.9,80.4-23.3,93.3-93.4
			C982,274.1,992.4,284.6,1062.4,297.5z"/>
	</g>
	<g>
		<path fill="#FFFFFF" d="M1162.4,407.9c-50.5,9.3-58,16.8-67.3,67.4c-9.3-50.5-16.8-58.1-67.3-67.4c50.5-9.3,58-16.8,67.3-67.4
			C1104.4,391.1,1112,398.6,1162.4,407.9z"/>
	</g>
	<g>
		<path fill="#FFFFFF" d="M1090.7,527.4c-33.1,6.1-38.1,11.1-44.2,44.2c-6.1-33.2-11-38.1-44.2-44.2c33.1-6.1,38.1-11.1,44.2-44.2
			C1052.6,516.3,1057.6,521.3,1090.7,527.4z"/>
	</g>
	<g>
		<path fill="#FFFFFF" d="M1138.8,598.3c-20.2,3.7-23.2,6.7-26.9,26.9c-3.7-20.2-6.7-23.2-26.9-26.9c20.2-3.7,23.2-6.7,26.9-26.9
			C1115.6,591.6,1118.7,594.6,1138.8,598.3z"/>
	</g>
</g>
<g id="Layer_3" display="none">
	<path display="inline" fill="#FFFFFF" d="M282.7,398.5c4.2,0,6.9,2.3,8,6.8c0.2,1,0.3,2.1,0.2,3.1c-0.5,3.5-3,5.7-7.4,6.5
		c-0.5,0.1-1,0.1-1.6,0.1h-85.7c-7.2,0-13.4-2.5-18.6-7.6c-5.2-5.1-7.7-11.2-7.7-18.5V261.1c0-7.2,2.6-13.4,7.7-18.6
		c5.2-5.2,11.4-7.7,18.6-7.7h52.4c3.8,0,6.4,2,7.7,6.1c0.5,1.5,0.6,3,0.3,4.5c-0.8,3-3.1,5-7.1,6c-0.6,0.1-1.2,0.2-1.8,0.2h-51.5
		c-5.1,0-8.2,2.9-9.4,8.8c-0.1,0.5-0.1,1-0.1,1.6v127c0,4.9,2.9,8,8.7,9.4c0.6,0.1,1.2,0.2,1.8,0.2H282.7z M282.7,316.6
		c4.4,0,7.1,2.5,8.1,7.5c0.1,0.5,0.1,1,0.1,1.6v56.5c0,4-2,6.6-6,8c-1.5,0.5-3.1,0.7-4.6,0.3c-3-0.8-4.9-3.3-5.7-7.5
		c-0.1-0.5-0.1-1-0.1-1.5V342c0-4.7-3.8-8.6-8.6-8.6h-35.3c-4,0-6.7-2.1-8-6.3c-0.5-1.5-0.6-3.1-0.2-4.6c0.8-3,3.3-5,7.5-5.8
		c0.5-0.1,1-0.1,1.5-0.1H282.7z"/>
	<path display="inline" fill="#FFFFFF" d="M384.1,299.3c7.2,0,13.4,2.5,18.6,7.6c5.2,5.1,7.7,11.2,7.7,18.5v64
		c0,7.2-2.6,13.4-7.7,18.6c-5.2,5.2-11.4,7.7-18.6,7.7h-56.3c-7.2,0-13.4-2.6-18.6-7.7c-5.2-5.2-7.7-11.4-7.7-18.6v-23
		c0-7.2,2.5-13.4,7.5-18.5c5-5.1,11.3-7.7,18.8-7.9h57.3c4.7,0,8.5-3.8,8.5-8.5v-6.2c0-4.9-2.9-8-8.8-9.2c-0.5-0.1-1-0.1-1.6-0.1
		h-33c-3.9,0-6.4-2.1-7.7-6.4c-0.4-1.5-0.6-3-0.2-4.5c0.8-2.9,3.1-4.8,7.1-5.7c0.6-0.1,1.2-0.2,1.8-0.2H384.1z M393.7,388.5v-23.1
		c0-4.7-3.8-8.5-8.5-8.5h-57.3c-5.1,0-8.2,2.9-9.4,8.8c-0.1,0.5-0.1,1-0.1,1.6v22.2c0,5.1,2.9,8.2,8.8,9.4c0.5,0.1,1,0.1,1.6,0.1
		h55.5c4.9,0,8-2.9,9.4-8.7C393.6,389.7,393.7,389.1,393.7,388.5z"/>
	<path display="inline" fill="#FFFFFF" d="M464.7,399c4.6,0,7.4,2.8,8.3,8.3c0,4.6-2.8,7.5-8.3,8.5h-12.1c-7.2,0-13.4-2.6-18.5-7.7
		c-5.1-5.2-7.6-11.3-7.6-18.3V243.8c0-4.6,2.8-7.5,8.3-8.5c4.6,0,7.5,2.8,8.5,8.5v145.8c0,5.2,3.1,8.3,9.3,9.3H464.7z"/>
	<path display="inline" fill="#FFFFFF" d="M559.6,299.3c7.2,0,13.4,2.5,18.6,7.6c5.2,5.1,7.7,11.2,7.7,18.5v64
		c0,7.2-2.6,13.4-7.7,18.6c-5.2,5.2-11.4,7.7-18.6,7.7h-56.3c-7.2,0-13.4-2.6-18.6-7.7c-5.2-5.2-7.7-11.4-7.7-18.6v-23
		c0-7.2,2.5-13.4,7.5-18.5c5-5.1,11.3-7.7,18.8-7.9h57.3c4.7,0,8.5-3.8,8.5-8.5v-6.2c0-4.9-2.9-8-8.8-9.2c-0.5-0.1-1-0.1-1.6-0.1
		h-33c-3.9,0-6.4-2.1-7.7-6.4c-0.4-1.5-0.6-3-0.2-4.5c0.8-2.9,3.1-4.8,7.1-5.7c0.6-0.1,1.2-0.2,1.8-0.2H559.6z M569.2,388.5v-23.1
		c0-4.7-3.8-8.5-8.5-8.5h-57.3c-5.1,0-8.2,2.9-9.4,8.8c-0.1,0.5-0.1,1-0.1,1.6v22.2c0,5.1,2.9,8.2,8.8,9.4c0.5,0.1,1,0.1,1.6,0.1
		h55.5c4.9,0,8-2.9,9.4-8.7C569.1,389.7,569.2,389.1,569.2,388.5z"/>
	<path display="inline" fill="#FFFFFF" d="M817.9,299.4c4.6,0.3,7.6,2.7,8.9,7.3c0.2,0.6,0.2,1.3,0.2,1.9v134.8
		c0,7.2-3,13.4-9.1,18.5c-6,5.1-13.3,7.6-21.7,7.6h-18.1c-4.5,0-7.5-1.9-8.9-5.6c-0.7-1.7-0.9-3.7-0.2-5.4c1.1-2.8,3.9-4.7,8.5-5.6
		c0.5-0.1,0.9-0.1,1.4-0.1h17.4c5.7,0,9.4-2.8,10.9-8.3c0.2-0.6,0.2-1.3,0.2-2v-18.7c0-4.4-3.5-7.9-7.9-7.9h-48
		c-8.5,0-15.7-2.6-21.7-7.7c-6-5.2-9.1-11.4-9.1-18.6v-82.1c0-4.3,2.9-7,8.8-8.1c0.5-0.1,1.1-0.2,1.7-0.1c4.6,0.3,7.6,2.7,8.9,7.3
		c0.2,0.6,0.2,1.3,0.2,1.9v81.1c0,5.2,3.5,8.3,10.5,9.5c0.4,0.1,0.8,0.1,1.2,0.1h47.3c4.4,0,7.9-3.5,7.9-7.9v-83.5
		c0-4.3,2.9-7,8.8-8.1C816.7,299.4,817.3,299.3,817.9,299.4z"/>
	<path display="inline" fill="#FFFFFF" d="M468.8,612.8c4.2,0,6.9,2.3,8,6.8c0.2,1,0.3,2.1,0.2,3.1c-0.5,3.5-3,5.7-7.4,6.5
		c-0.5,0.1-1,0.1-1.6,0.1h-85.7c-7.2,0-13.4-2.5-18.6-7.6c-5.2-5.1-7.7-11.2-7.7-18.5V475.4c0-7.2,2.6-13.4,7.7-18.6
		c5.2-5.2,11.4-7.7,18.6-7.7h52.4c3.8,0,6.4,2,7.7,6.1c0.5,1.5,0.6,3,0.3,4.5c-0.8,3-3.1,5-7.1,6c-0.6,0.1-1.2,0.2-1.8,0.2h-51.5
		c-5.1,0-8.2,2.9-9.4,8.8c-0.1,0.5-0.1,1-0.1,1.6v127c0,4.9,2.9,8,8.7,9.4c0.6,0.1,1.2,0.2,1.8,0.2H468.8z M468.8,530.9
		c4.4,0,7.1,2.5,8.1,7.5c0.1,0.5,0.1,1,0.1,1.6v56.5c0,4-2,6.6-6,8c-1.5,0.5-3.1,0.7-4.6,0.3c-3-0.8-4.9-3.3-5.7-7.5
		c-0.1-0.5-0.1-1-0.1-1.5v-39.4c0-4.7-3.8-8.6-8.6-8.6h-35.3c-4,0-6.7-2.1-8-6.3c-0.5-1.5-0.6-3.1-0.2-4.6c0.8-3,3.3-5,7.5-5.8
		c0.5-0.1,1-0.1,1.5-0.1H468.8z"/>
	<path display="inline" fill="#FFFFFF" d="M594.5,550.6c1.9,4.6,0.7,8.4-3.6,11.4c-1.2,0.5-2.5,0.8-3.9,0.8c-3.1,0-5.6-1.5-7.5-4.4
		l-11.9-22.7c-2.2-3.4-5.3-5.2-9-5.2H532c-3.3,0-6,1.4-8.3,4.1L507,557v64.5c0,4.6-2.8,7.5-8.5,8.5c-4.5,0-7.2-2.8-8.3-8.5v-99.6
		c0-4.5,2.8-7.2,8.3-8.3c4.6,0,7.5,2.8,8.5,8.3v7l3.4-4.4c5.8-7.2,13.1-10.8,21.7-10.8h26.6c10.2,0,18.2,4.7,24,14.2L594.5,550.6z"
		/>
	<path display="inline" fill="#FFFFFF" d="M681.2,513.6c7.2,0,13.4,2.5,18.6,7.6c5.2,5.1,7.7,11.2,7.7,18.5v64
		c0,7.2-2.6,13.4-7.7,18.6c-5.2,5.2-11.4,7.7-18.6,7.7H625c-7.2,0-13.4-2.6-18.6-7.7c-5.2-5.2-7.7-11.4-7.7-18.6v-23
		c0-7.2,2.5-13.4,7.5-18.5c5-5.1,11.3-7.7,18.8-7.9h57.3c4.7,0,8.5-3.8,8.5-8.5v-6.2c0-4.9-2.9-8-8.8-9.2c-0.5-0.1-1-0.1-1.6-0.1
		h-33c-3.9,0-6.4-2.1-7.7-6.4c-0.4-1.5-0.6-3-0.2-4.5c0.8-2.9,3.1-4.8,7.1-5.7c0.6-0.1,1.2-0.2,1.8-0.2H681.2z M690.8,602.8v-23.1
		c0-4.7-3.8-8.5-8.5-8.5H625c-5.1,0-8.2,2.9-9.4,8.8c-0.1,0.5-0.1,1-0.1,1.6v22.2c0,5.1,2.9,8.2,8.8,9.4c0.5,0.1,1,0.1,1.6,0.1h55.5
		c4.9,0,8-2.9,9.4-8.7C690.7,604,690.8,603.4,690.8,602.8z"/>
	<path display="inline" fill="#FFFFFF" d="M806.4,513.6c7.2,0,13.3,2.5,18.3,7.5c5,5,7.7,11.2,8,18.6v64c0,7.2-2.6,13.4-7.7,18.6
		c-5.2,5.2-11.4,7.7-18.6,7.7h-56.8c-5,0-9,4-9,9v36.5c0,4-2.1,6.6-6.3,7.8c-1.5,0.4-3,0.6-4.5,0.2c-2.9-0.8-4.8-3.1-5.7-7
		c-0.1-0.6-0.2-1.2-0.2-1.9V539.7c0-7.2,2.6-13.4,7.7-18.5c5.2-5.1,11.4-7.6,18.6-7.6H806.4z M815.8,604.7c0.1-0.6,0.2-1.2,0.2-1.9
		v-63.1c0-4.9-2.9-8-8.7-9.1c-0.5-0.1-1.1-0.1-1.6-0.1h-55.4c-5.1,0-8.2,2.8-9.4,8.5c-0.1,0.6-0.2,1.1-0.2,1.7v63.7c0,5,4,9,9,9
		h56.8C811.3,613.3,814.4,610.4,815.8,604.7z"/>
	<path display="inline" fill="#FFFFFF" d="M932.1,513.6c7.2,0,13.4,2.5,18.6,7.6c5.2,5.1,7.7,11.2,7.7,18.5v81.8
		c0,4.2-2.3,6.9-7,8.2c-1,0.3-2.1,0.4-3.2,0.2c-3.5-0.6-5.6-3.1-6.5-7.7c-0.1-0.5-0.1-1-0.1-1.5v-81.1c0-5-2.9-8-8.8-9.2
		c-0.5-0.1-1-0.1-1.5-0.1h-56.7c-4.6,0-8.4,3.8-8.4,8.4v82.7c0,4-2.1,6.7-6.4,8c-1.5,0.5-3,0.6-4.5,0.2c-2.9-0.8-4.8-3.3-5.8-7.4
		c-0.1-0.6-0.2-1.1-0.2-1.7V458.1c0-4,2-6.7,6.1-8c1.5-0.5,3-0.6,4.5-0.3c3.1,0.8,5.1,3.3,6,7.4c0.1,0.6,0.2,1.1,0.2,1.7v46.3
		c0,4.6,3.8,8.4,8.4,8.4H932.1z"/>
	<path display="inline" fill="#FFFFFF" d="M665.2,357.7l40.6,44.9c3.2,4.3,2.4,8.2-2.2,11.6c-1.9,1-3.9,1.5-6,1.5
		c-3.2,0-6-1.1-8.6-3.4l-36.5-40.8L616,412.4c-2.3,2.2-5.1,3.4-8.3,3.4c-2.1,0-4.1-0.5-6-1.5c-4.9-3.4-5.6-7.3-2.2-11.6l40.3-44.9
		l-40.3-45.2c-3.4-4.3-2.6-8.2,2.2-11.6c5.3-2.6,10.1-2,14.3,1.8l36.5,40.8l36.5-40.8c4.2-3.8,9.1-4.4,14.6-1.8
		c4.7,3.4,5.4,7.3,2.2,11.6L665.2,357.7z"/>
	<g display="inline">
		<path fill="#FFFFFF" d="M1168.3,290c-88.4,16.3-101.6,29.5-117.8,117.9c-16.3-88.5-29.5-101.7-117.8-117.9
			c88.4-16.3,101.6-29.5,117.8-117.9C1066.8,260.5,1080,273.7,1168.3,290z"/>
	</g>
	<g display="inline">
		<path fill="#FFFFFF" d="M1002.8,391.5c-51.9,9.6-59.6,17.3-69.1,69.2c-9.5-51.9-17.3-59.6-69.1-69.2c51.9-9.6,59.6-17.3,69.1-69.2
			C943.2,374.2,950.9,382,1002.8,391.5z"/>
	</g>
	<g display="inline">
		<path fill="#FFFFFF" d="M19.6,614.8c88.4-16.3,101.6-29.5,117.8-117.9c16.3,88.5,29.5,101.7,117.8,117.9
			c-88.4,16.3-101.6,29.5-117.8,117.9C121.2,644.3,108,631.1,19.6,614.8z"/>
	</g>
	<g display="inline">
		<path fill="#FFFFFF" d="M189.2,512.7c51.9-9.6,59.6-17.3,69.1-69.2c9.5,51.9,17.3,59.6,69.1,69.2c-51.9,9.6-59.6,17.3-69.1,69.2
			C248.8,530,241,522.3,189.2,512.7z"/>
	</g>
</g>
</svg>
