<?xml version="1.0" encoding="utf-8"?>
<!-- Generator: Adobe Illustrator 18.1.1, SVG Export Plug-In . SVG Version: 6.00 Build 0)  -->
<svg version="1.1" xmlns="http://www.w3.org/2000/svg" xmlns:xlink="http://www.w3.org/1999/xlink" x="0px" y="0px"
	 viewBox="0 0 320 320" enable-background="new 0 0 320 320" xml:space="preserve">
<g id="Background" display="none">
	<rect display="inline" width="320" height="320"/>
</g>
<g id="Star_12" display="none">
</g>
<g id="Star_11" display="none">
	<g display="inline">
		<path fill="#FFFFFF" d="M175.5,38.1c-0.3,6.6-5.8,12.3-13.1,12.3c-0.1,0-0.1,0-0.2,0c-1.4,0-2.9,0-4.3,0.1
			c-7.4,0.2-13.1-5.5-13.4-12.3c0-0.4,0-0.7,0-1.1c0.1-1.3,0.3-2.6,0.8-4l9.1-24.6c0,0,0-0.1,0-0.1c1.8-4.6,8.4-4.7,10.3,0l6.9,17.2
			l2.8,7c0.6,1.4,0.9,2.9,1,4.3C175.5,37.4,175.5,37.8,175.5,38.1z"/>
		<path fill="#FFFFFF" stroke="#FFFFFF" stroke-miterlimit="10" d="M234.5,160c0,4.4-0.4,8.8-1.1,13.1c-5.3,30-28.7,53.9-58.4,59.9
			c-4.8,1-9.9,1.5-15,1.5c-4.2,0-8.4-0.3-12.5-1c-30.4-5.2-54.6-28.9-60.5-59c-0.9-4.6-1.4-9.6-1.4-14.5c0-4.4,0.4-8.8,1.1-13.1
			c5.3-30,28.7-53.9,58.4-59.9c4.8-1,9.9-1.5,15-1.5c4.2,0,8.4,0.3,12.5,1c30.4,5.2,54.6,28.9,60.5,59
			C234,150.1,234.5,155.1,234.5,160z"/>
		<path fill="#FFFFFF" d="M144.5,281.9c0.3-6.6,5.8-12.3,13.1-12.3c0.1,0,0.1,0,0.2,0c1.4,0,2.9,0,4.3-0.1
			c7.4-0.2,13.1,5.5,13.4,12.3c0,0.4,0,0.7,0,1.1c-0.1,1.3-0.3,2.6-0.8,4l-9.1,24.6c0,0,0,0.1,0,0.1c-1.8,4.6-8.4,4.7-10.3,0
			l-6.9-17.2l-2.8-7c-0.6-1.4-0.9-2.9-1-4.3C144.5,282.6,144.5,282.2,144.5,281.9z"/>
		<path fill="#FFFFFF" d="M38.1,144.5c6.6,0.3,12.3,5.8,12.3,13.1c0,0.1,0,0.1,0,0.2c0,1.4,0,2.9,0.1,4.3
			c0.2,7.4-5.5,13.1-12.3,13.4c-0.4,0-0.7,0-1.1,0c-1.3-0.1-2.6-0.3-4-0.8l-24.6-9.1c0,0-0.1,0-0.1,0c-4.6-1.8-4.7-8.4,0-10.3
			l17.2-6.9l7-2.8c1.4-0.6,2.9-0.9,4.3-1C37.4,144.5,37.8,144.5,38.1,144.5z"/>
		<path fill="#FFFFFF" d="M281.9,175.5c-6.6-0.3-12.3-5.8-12.3-13.1c0-0.1,0-0.1,0-0.2c0-1.4,0-2.9-0.1-4.3
			c-0.2-7.4,5.5-13.1,12.3-13.4c0.4,0,0.7,0,1.1,0c1.3,0.1,2.6,0.3,4,0.8l24.6,9.1c0,0,0.1,0,0.1,0c4.6,1.8,4.7,8.4,0,10.3
			l-17.2,6.9l-7,2.8c-1.4,0.6-2.9,0.9-4.3,1C282.6,175.5,282.2,175.5,281.9,175.5z"/>
		<path fill="#FFFFFF" d="M84.8,62.9c4.4,4.9,4.6,12.8-0.6,17.9c-0.1,0.1-0.1,0.1-0.1,0.1c-1,1-2,2-3,3.1C76,89.5,68,89.4,62.9,84.9
			c-0.3-0.2-0.5-0.5-0.8-0.8c-0.9-1-1.7-2.1-2.2-3.4L49,56.9c0,0,0-0.1,0-0.1c-2-4.5,2.6-9.3,7.3-7.3l17.1,7.3l7,3
			c1.4,0.6,2.6,1.4,3.7,2.3C84.3,62.3,84.6,62.6,84.8,62.9z"/>
		<path fill="#FFFFFF" d="M235.2,257.1c-4.4-4.9-4.6-12.8,0.6-17.9c0.1-0.1,0.1-0.1,0.1-0.1c1-1,2-2,3-3.1
			c5.1-5.4,13.2-5.4,18.2-0.8c0.3,0.2,0.5,0.5,0.8,0.8c0.9,1,1.7,2.1,2.2,3.4l10.9,23.8c0,0,0,0.1,0,0.1c2,4.5-2.6,9.3-7.3,7.3
			l-17.1-7.3l-7-3c-1.4-0.6-2.6-1.4-3.7-2.3C235.7,257.7,235.4,257.4,235.2,257.1z"/>
		<path fill="#FFFFFF" d="M62.9,235.2c4.9-4.4,12.8-4.6,17.9,0.6c0.1,0.1,0.1,0.1,0.1,0.1c1,1,2,2,3.1,3c5.4,5.1,5.4,13.2,0.8,18.2
			c-0.2,0.3-0.5,0.5-0.8,0.8c-1,0.9-2.1,1.7-3.4,2.2L56.9,271c0,0-0.1,0-0.1,0c-4.5,2-9.3-2.6-7.3-7.3l7.3-17.1l3-7
			c0.6-1.4,1.4-2.6,2.3-3.7C62.3,235.7,62.6,235.4,62.9,235.2z"/>
		<path fill="#FFFFFF" d="M257.1,84.8c-4.9,4.4-12.8,4.6-17.9-0.6c-0.1-0.1-0.1-0.1-0.1-0.1c-1-1-2-2-3.1-3
			c-5.4-5.1-5.4-13.2-0.8-18.2c0.2-0.3,0.5-0.5,0.8-0.8c1-0.9,2.1-1.7,3.4-2.2L263.1,49c0,0,0.1,0,0.1,0c4.5-2,9.3,2.6,7.3,7.3
			l-7.3,17.1l-3,7c-0.6,1.4-1.4,2.6-2.3,3.7C257.7,84.3,257.4,84.6,257.1,84.8z"/>
	</g>
</g>
<g id="Star_10" display="none">
	<path display="inline" fill="#FFFFFF" d="M320,141.4c0,1,0,2,0,3c-0.7-41.8-35.2-75.4-77.7-75.4c-25.1,0-47.5,11.8-61.7,30
		c57.9,1,104.8,47.8,106.9,106.2c0,0,0,0,0,0c0,0.3,0,0.6,0,0.9c0,0.6,0,1.1,0.1,1.6v0c0,0.5,0,1.1,0,1.6
		c0,61-48.8,110.5-108.9,110.5c-1,0-2,0-3,0c41.8-0.7,75.4-35.2,75.4-77.7c0-25.1-11.8-47.5-30-61.7c-1,59.3-50.1,107-110.5,107
		C49.5,287.5,0,238.8,0,178.6c0-1,0-2,0-3.1C0.7,217.3,35.2,251,77.8,251c25.1,0,47.5-11.8,61.7-30c-57.9-1-104.8-47.8-106.9-106.2
		c0-0.3,0-0.6,0-0.9c0-0.6,0-1.1-0.1-1.6c0-0.5,0-1.1,0-1.7C32.5,49.5,81.2,0,141.4,0c1,0,2,0,3,0C102.7,0.7,69,35.2,69,77.8
		c0,25.1,11.8,47.5,30,61.7c1-57.9,47.8-104.8,106.2-106.9c0.3,0,0.6,0,0.9,0c0.6,0,1.1,0,1.6-0.1c0.5,0,1.1,0,1.7,0
		C270.5,32.5,320,81.2,320,141.4z"/>
</g>
<g id="Star_9" display="none">
	<circle display="inline" fill="#FFFFFF" stroke="#FFFFFF" stroke-miterlimit="10" cx="160" cy="160" r="63.5"/>
	<circle display="inline" fill="none" stroke="#FFFFFF" stroke-width="20" stroke-miterlimit="10" cx="160" cy="160" r="123.5"/>
</g>
<g id="Star_8" display="none">
	<path display="inline" fill="#FFFFFF" d="M155.4,313.2l-31.7-113.6c-0.4-1.6-1.7-2.9-3.3-3.3L6.8,164.6c-4.7-1.3-4.7-7.9,0-9.2
		l113.6-31.7c1.6-0.4,2.9-1.7,3.3-3.3L155.4,6.8c1.3-4.7,7.9-4.7,9.2,0l31.7,113.6c0.4,1.6,1.7,2.9,3.3,3.3l113.6,31.7
		c4.7,1.3,4.7,7.9,0,9.2l-113.6,31.7c-1.6,0.4-2.9,1.7-3.3,3.3l-31.7,113.6C163.3,317.8,156.7,317.8,155.4,313.2z"/>
	<path display="inline" fill="#FFFFFF" d="M235.9,240.6l-74.2-41.8c-1.1-0.6-2.3-0.6-3.4,0l-74.2,41.8c-3,1.7-6.4-1.7-4.7-4.7
		l41.8-74.2c0.6-1.1,0.6-2.3,0-3.4L79.4,84.1c-1.7-3,1.7-6.4,4.7-4.7l74.2,41.8c1.1,0.6,2.3,0.6,3.4,0l74.2-41.8
		c3-1.7,6.4,1.7,4.7,4.7l-41.8,74.2c-0.6,1.1-0.6,2.3,0,3.4l41.8,74.2C242.3,239,239,242.3,235.9,240.6z"/>
</g>
<g id="Star_7" display="none">
	<path display="inline" fill="none" stroke="#FFFFFF" stroke-width="20" stroke-miterlimit="10" d="M151.3,16L30.1,226
		c-3.8,6.7,1,15,8.7,15h242.5c7.7,0,12.5-8.3,8.7-15L168.7,16C164.8,9.3,155.2,9.3,151.3,16L30.1,226c-3.8,6.7,1,15,8.7,15h242.5
		c7.7,0,12.5-8.3,8.7-15L168.7,16C164.8,9.3,155.2,9.3,151.3,16z"/>
	<path display="inline" fill="none" stroke="#FFFFFF" stroke-width="20" stroke-miterlimit="10" d="M168.7,305L289.9,95
		c3.8-6.7-1-15-8.7-15H38.8c-7.7,0-12.5,8.3-8.7,15l121.2,210C155.2,311.7,164.8,311.7,168.7,305L289.9,95c3.8-6.7-1-15-8.7-15H38.8
		c-7.7,0-12.5,8.3-8.7,15l121.2,210C155.2,311.7,164.8,311.7,168.7,305z"/>
</g>
<g id="Star_6" display="none">
	<polygon display="inline" fill="#FFFFFF" points="221.2,186.8 258.4,301.5 160.9,230.6 174.9,187.6 220.2,187.6 183.6,161 
		197.6,117.9 160.9,144.5 124.3,117.9 138.3,161 101.7,187.6 147,187.6 160.9,230.6 63.5,301.5 100.7,186.8 3.2,116 123.7,116 
		160.9,1.4 198.2,116 318.7,116 	"/>
</g>
<g id="Star_5" display="none">
	<g display="inline">
		<path fill="#FFFFFF" d="M320,160c-120,22.1-137.9,40-160,160C137.9,200,120,182.1,0,160c120-22.1,137.9-40,160-160
			C182.1,120,200,137.9,320,160z"/>
	</g>
</g>
<g id="Star_4" display="none">
	<path display="inline" fill="#FFFFFF" d="M155.6,314.9L128.4,245c-1-2.5-3.8-3.6-6.2-2.6l-68.6,30.1c-3.9,1.7-7.9-2.3-6.2-6.2
		l30.1-68.6c1.1-2.4-0.1-5.3-2.6-6.2L5.1,164.4c-4-1.5-4-7.2,0-8.7L75,128.4c2.5-1,3.6-3.8,2.6-6.2L47.4,53.6
		c-1.7-3.9,2.3-7.9,6.2-6.2l68.6,30.1c2.4,1.1,5.3-0.1,6.2-2.6l27.2-69.8c1.5-4,7.2-4,8.7,0L191.6,75c1,2.5,3.8,3.6,6.2,2.6
		l68.6-30.1c3.9-1.7,7.9,2.3,6.2,6.2l-30.1,68.6c-1.1,2.4,0.1,5.3,2.6,6.2l69.8,27.2c4,1.5,4,7.2,0,8.7L245,191.6
		c-2.5,1-3.6,3.8-2.6,6.2l30.1,68.6c1.7,3.9-2.3,7.9-6.2,6.2l-68.6-30.1c-2.4-1.1-5.3,0.1-6.2,2.6l-27.2,69.8
		C162.8,318.8,157.2,318.8,155.6,314.9z"/>
</g>
<g id="Star_3" display="none">
	<path display="inline" fill="#FFFFFF" d="M164.4,5.7l30.4,87.8c0.8,2.2,3,3.5,5.3,3.1L291.4,79c4.4-0.8,7.4,4.3,4.4,7.7l-60.8,70.2
		c-1.5,1.8-1.5,4.4,0,6.2l60.8,70.2c2.9,3.4-0.1,8.5-4.4,7.7l-91.2-17.6c-2.3-0.4-4.6,0.9-5.3,3.1l-30.4,87.8
		c-1.5,4.2-7.4,4.2-8.9,0l-30.4-87.8c-0.8-2.2-3-3.5-5.3-3.1L28.6,241c-4.4,0.8-7.4-4.3-4.4-7.7l60.8-70.2c1.5-1.8,1.5-4.4,0-6.2
		L24.1,86.7c-2.9-3.4,0.1-8.5,4.4-7.7l91.2,17.6c2.3,0.4,4.6-0.9,5.3-3.1l30.4-87.8C157,1.4,163,1.4,164.4,5.7z"/>
</g>
<g id="Star_2" display="none">
	<path display="inline" fill="#FFFFFF" d="M165,11.1l40.5,97.3c0.7,1.6,2.2,2.7,3.9,2.9l105.1,8.5c4.1,0.3,5.8,5.5,2.7,8.2l-80,68.6
		c-1.3,1.1-1.9,2.9-1.5,4.6l24.4,102.6c1,4-3.4,7.2-7,5.1l-90-54.9c-1.5-0.9-3.4-0.9-4.9,0l-90,54.9c-3.5,2.2-7.9-1-7-5.1
		l24.4-102.6c0.4-1.7-0.2-3.5-1.5-4.6l-80-68.6c-3.1-2.7-1.5-7.9,2.7-8.2l105.1-8.5c1.7-0.1,3.3-1.2,3.9-2.9l40.5-97.3
		C158,7.2,163.4,7.2,165,11.1z"/>
</g>
<g id="Star_1">
	<path fill="#FFFFFF" d="M155.6,315.5l-39.2-109c-0.5-1.3-1.5-2.4-2.8-2.8l-109-39.2c-4.2-1.5-4.2-7.4,0-8.9l109-39.2
		c1.3-0.5,2.4-1.5,2.8-2.8l39.2-109c1.5-4.2,7.4-4.2,8.9,0l39.2,109c0.5,1.3,1.5,2.4,2.8,2.8l109,39.2c4.2,1.5,4.2,7.4,0,8.9
		l-109,39.2c-1.3,0.5-2.4,1.5-2.8,2.8l-39.2,109C162.9,319.7,157.1,319.7,155.6,315.5z"/>
</g>
</svg>
